HIERARCHY
ROOT Hips
{
	OFFSET 0.00000 0.00000 0.00000
	CHANNELS 6 Xposition Yposition Zposition Yrotation Zrotation Xrotation 
	JOINT Lumbar
	{
		OFFSET 0 0 0
		CHANNELS 3 Zrotation Xrotation Yrotation
		JOINT Neck
		{
			OFFSET 0.00 0.2701 0.00
			CHANNELS 3 Zrotation Xrotation Yrotation
			End Site
			{
				OFFSET 0.00 0.1379 0.00
			}
		}
		JOINT RightShoulder
		{
			OFFSET 0.0119 0.2289 0.1181
			CHANNELS 3 Zrotation Xrotation Yrotation
			JOINT RightElbow
			{
				OFFSET 0.00 -0.1475 0.00
				CHANNELS 2 Zrotation Yrotation
				JOINT RightWrist
				{
					OFFSET 0.00 -0.1605 0.00
					CHANNELS 2 Zrotation Xrotation
					End Site
					{
						OFFSET 0.0040 -0.1068 0.0006
					}
				}
			}
		}
		JOINT LeftShoulder
		{
			OFFSET 0.0119 0.2289 -0.1181
			CHANNELS 3 Zrotation Xrotation Yrotation
			JOINT LeftElbow
			{
				OFFSET 0.00 -0.1475 0.00
				CHANNELS 2 Zrotation Yrotation
				JOINT LeftWrist
				{
					OFFSET 0.00 -0.1605 0.00
					CHANNELS 2 Zrotation Xrotation
					End Site
					{
						OFFSET 0.0040 -0.1068 -0.0006
					}
				}
			}
		}
	}
	JOINT RightHip
	{
		OFFSET 0.0316 -0.0424 0.0458
		CHANNELS 3 Zrotation Xrotation Yrotation
		JOINT RightKnee
		{
			OFFSET 0.00 -0.2438 0.00
			CHANNELS 1 Zrotation
			JOINT RightAnkle
			{
				OFFSET 0.00 -0.2449 0.00
				CHANNELS 3 Zrotation Xrotation Yrotation
				End Site
				{
					OFFSET 0.1237 -0.0542 0.0051
				}
			}
		}
	}
	JOINT LeftHip
	{
		OFFSET 0.0316 -0.0424 -0.0458
		CHANNELS 3 Zrotation Xrotation Yrotation
		JOINT LeftKnee
		{
			OFFSET 0.00 -0.2438 0.00
			CHANNELS 1 Zrotation
			JOINT LeftAnkle
			{
				OFFSET 0.00 -0.2449 0.00
				CHANNELS 3 Zrotation Xrotation Yrotation
				End Site
				{
					OFFSET 0.1237 -0.0542 -0.0051
				}
			}
		}
	}
}
MOTION
Frames: 11
Frame Time: 0.02
-0.00075 -0.00049 0.00042 27.51763 -30.81358 -5.66811 45.10937 0.91498 -4.65148 15.12428 -1.26879 -0.37917 7.50219 -10.94743 25.91013 34.38644 89.58971 7.36332 -0.95896 14.57481 13.12309 -28.51809 40.52652 -89.00002 4.34184 -0.21937 44.41312 0.1814 -4.16461 -19.81905 -6.90032 -4.44671 -3.01747 48.83272 4.85634 10.6607 -25.27107 -6.98475 1.36177 1.30506
-0.00037 -0.00044 5e-05 27.53901 -30.89762 -5.70622 45.23729 0.9361 -4.75561 14.55383 -1.23906 -0.37989 4.9142 -11.27994 23.30599 33.84531 89.8617 7.26935 -0.78596 11.06923 13.34737 -27.17907 40.49251 -89.28505 4.30524 -0.37103 44.41984 0.14539 -4.39454 -19.78739 -6.88539 -4.41332 -2.99392 48.87526 4.7797 10.2669 -25.27209 -6.96923 1.41778 1.33746
-0 -0.0004 -0.00031 27.56018 -30.9815 -5.74422 45.36486 0.95721 -4.85928 13.98453 -1.20944 -0.3806 2.33161 -11.61141 20.70635 33.30622 90.1404 7.17815 -0.6125 7.57123 13.57129 -25.84301 40.4588 -89.57767 4.27206 -0.52309 44.42669 0.1095 -4.62375 -19.75576 -6.87052 -4.38001 -2.97044 48.9178 4.70324 9.87403 -25.27307 -6.95376 1.47366 1.36979
0.00037 -0.00035 -0.00068 27.58148 -31.0653 -5.78222 45.49239 0.97827 -4.96308 13.41573 -1.1798 -0.38131 -0.24888 -11.94285 18.10945 32.76683 90.41327 7.08502 -0.43981 4.07587 13.7949 -24.50783 40.42493 -89.8639 4.23635 -0.67453 44.43341 0.07361 -4.85298 -19.72418 -6.85564 -4.34672 -2.94697 48.96022 4.62682 9.4814 -25.27409 -6.93829 1.52951 1.40209
0.00074 -0.0003 -0.00104 27.60304 -31.14922 -5.82032 45.62026 0.99932 -5.06739 12.84604 -1.15007 -0.38202 -2.83364 -12.27546 15.50993 32.22525 90.67524 6.98778 -0.26812 0.57431 14.01884 -23.17038 40.39067 -90.13744 4.19533 -0.82498 44.43998 0.03759 -5.08293 -19.6926 -6.84071 -4.31335 -2.92344 49.00262 4.55026 9.08796 -25.27514 -6.92274 1.58548 1.43446
0.00111 -0.00026 -0.0014 27.62338 -31.23301 -5.85809 45.74718 1.02056 -5.16969 12.2776 -1.12068 -0.38273 -5.41143 -12.60457 12.91056 31.69139 90.98828 6.90903 -0.09107 -2.91591 14.24278 -21.83747 40.35809 -90.46898 4.1782 -0.98025 44.44744 0.00196 -5.31058 -19.66089 -6.82598 -4.28016 -2.90005 49.04547 4.47399 8.6963 -25.27599 -6.90744 1.64117 1.46671
0.00149 -0.00021 -0.00177 27.64619 -31.31696 -5.89649 45.87587 1.04138 -5.27595 11.70725 -1.09062 -0.38343 -8.00071 -12.94001 10.31233 31.14269 91.20192 6.7943 0.0755 -6.42538 14.46621 -20.49627 40.32222 -90.68869 4.11485 -1.12639 44.45303 -0.03439 -5.54258 -19.62944 -6.81085 -4.24666 -2.8764 49.0873 4.39722 8.30149 -25.27725 -6.89167 1.69735 1.49915
0.00185 -0.00017 -0.00213 27.66666 -31.40079 -5.9343 46.00293 1.06261 -5.3785 11.13871 -1.06119 -0.38415 -10.57886 -13.27028 7.71563 30.6075 91.50043 6.71068 0.25079 -9.91658 14.69058 -19.16386 40.2893 -91.00196 4.09076 -1.27957 44.46046 -0.0701 -5.77061 -19.59779 -6.79609 -4.21343 -2.853 49.13018 4.32092 7.90961 -25.27814 -6.87634 1.7531 1.53142
0.00221 -0.00012 -0.00249 27.68449 -31.4844 -5.97147 46.12806 1.08429 -5.47678 10.57183 -1.03247 -0.38486 -13.14706 -13.59169 5.10886 30.08933 91.93117 6.67369 0.44073 -13.38954 14.91438 -17.83689 40.26035 -91.46925 4.12862 -1.44705 44.46969 -0.10497 -5.99371 -19.56572 -6.78177 -4.18056 -2.82989 49.17396 4.24512 7.52098 -25.27851 -6.86152 1.80829 1.56347
0.00264 -8e-05 -0.0029 27.71816 -31.56907 -6.01255 46.26446 1.1032 -5.60041 9.99369 -0.99947 -0.38555 -15.78361 -13.95648 2.52398 29.47475 91.68691 6.39432 0.55841 -16.97993 15.1363 -16.46262 40.20963 -91.16974 3.85209 -1.54939 44.46721 -0.14451 -6.24496 -19.53554 -6.76487 -4.14572 -2.80507 49.21141 4.16621 7.11265 -25.28167 -6.84367 1.86657 1.59677
0.00291 -2e-05 -0.00318 27.71803 -31.65163 -6.04524 46.37695 1.12807 -5.67006 9.44053 -0.97566 -0.3863 -18.26837 -14.23458 -0.0835 29.06262 92.81107 6.60953 0.82073 -20.31399 15.36542 -15.19861 40.20416 -92.41079 4.21161 -1.77813 44.49032 -0.17427 -6.43695 -19.50173 -6.75347 -4.115 -2.78386 49.26292 4.09401 6.74658 -25.27911 -6.83226 1.91842 1.62745
